<svg version="1.1" xmlns="http://www.w3.org/2000/svg" xmlns:xlink="http://www.w3.org/1999/xlink" width="303.70675" height="525.41846" viewBox="0,0,147.96875,256"><g fill="none" fill-rule="nonzero" stroke="none" stroke-width="1" stroke-linecap="butt" stroke-linejoin="miter" stroke-miterlimit="10" stroke-dasharray="" stroke-dashoffset="0" font-family="none" font-weight="none" font-size="none" text-anchor="none" style="mix-blend-mode: normal"><g transform="translate(-0.00325,0) scale(0.48723,0.48723)"><path d="M42.48676,524.22846c0,0.65997 0.53,1.19 1.19,1.19h258.83998c0.66,0 1.19,-0.53003 1.19,-1.19c0,-0.65997 -0.53,-1.19 -1.19,-1.19h-258.83998c-0.66,0 -1.19,0.53003 -1.19,1.19z" fill="#ffffff"></path><path d="M178.60676,0.32846c0,0 -21.91,-5.31 -35.17,26.77c-11.05,26.74 -18.89,41.02 -9.92,50.72001c3.21001,3.47 7.78999,5.34 12.50999,5.5l50.5,1.66c0,0 18.54001,-48.62 7.27,-66.2c-11.26999,-17.59001 -25.18999,-18.45001 -25.18999,-18.45001z" fill="#2f2e41"></path><path d="M189.06676,80.93847l-24.29,7.98999v-34.96999h22.04z" fill="#f6a6a9"></path><path d="M170.42675,504.68848h-22.75999l-13.18999,-121.58002h35.17z" fill="#f6a6a9"></path><path d="M125.50676,524.22846c-2.39,0 -4.52,-0.06 -6.13,-0.21002c-6.05,-0.54999 -11.81,-5.01001 -14.71,-7.62c-1.3,-1.16998 -1.72,-3.03998 -1.04,-4.64999v0c0.49,-1.16 1.46,-2.01999 2.66,-2.35999l15.97,-4.56l25.86,-17.45001l0.28999,0.51999c0.11,0.19 2.64999,4.76999 3.5,7.85999c0.32001,1.17999 0.24001,2.16 -0.25,2.91c-0.34,0.53 -0.81,0.82999 -1.2,1c0.47,0.48999 1.94,1.48001 6.45,2.20001c6.60001,1.04999 7.98,-5.79001 8.03999,-6.07999l0.03999,-0.23001l0.2,-0.13c3.14,-2.01999 5.07001,-2.94 5.74001,-2.75c0.42,0.12 1.11,0.32999 2.98,18.95001c0.19,0.57999 1.5,4.87003 0.61,8.95999c-0.97,4.46002 -20.44,2.91998 -24.34,2.57001c-0.11,0.01001 -14.69,1.04999 -24.68,1.04999v0.02002h0.01001z" fill="#2f2e41"></path><path d="M221.82676,504.68848h-22.75l-13.19998,-121.58002h35.17z" fill="#f6a6a9"></path><path d="M176.91676,524.22846c-2.39,0 -4.52,-0.06 -6.13,-0.21002c-6.05,-0.54999 -11.81,-5.01001 -14.71001,-7.62c-1.3,-1.16998 -1.72,-3.03998 -1.03999,-4.64999v0c0.49001,-1.16 1.46001,-2.01999 2.66,-2.35999l15.97,-4.56l25.86,-17.45001l0.28999,0.51999c0.11,0.19 2.64999,4.76999 3.5,7.85999c0.32001,1.17999 0.24001,2.16 -0.25,2.91c-0.34,0.53 -0.81,0.82999 -1.2,1c0.47,0.48999 1.94,1.48001 6.45,2.20001c6.60001,1.04999 7.98,-5.79001 8.03999,-6.07999l0.03999,-0.23001l0.2,-0.13c3.14,-2.01999 5.07001,-2.94 5.74001,-2.75c0.42,0.12 1.11,0.32999 2.98,18.95001c0.19,0.57999 1.5,4.87003 0.61,8.95999c-0.97,4.46002 -20.44,2.91998 -24.34,2.57001c-0.11,0.01001 -14.69,1.04999 -24.68001,1.04999v0.02002z" fill="#2f2e41"></path><path d="M228.37678,206.06847h-110.56002l39.73999,-130.79001h44.08001z" fill="#dddedf"></path><path d="M114.80676,279.45847c-1.32,8.01001 -6.66,13.76001 -11.93,12.82999c-5.27,-0.92999 -8.48,-8.17001 -7.16,-16.17999c0.48,-3.20999 1.75,-6.23999 3.7,-8.85001l6.02,-33.87l16.39,3.42999l-7.68,33.01999c1.01,3.12 1.24,6.42001 0.67,9.62v0l-0.00999,0.00003z" id="uuid-66b3dceb-eb78-472d-bf6e-ff966fbe189c-126" fill="#f6a6a9"></path><path d="M164.51678,75.29847c0,0 -27.46001,-0.72 -30.35001,6.5c-2.89,7.23 -36.85,179.21001 -36.85,179.21001h22.4l44.8,-185.71001z" fill="#dddedf"></path><circle cx="170.34678" cy="38.00846" r="24.21" fill="#f6a6a9"></circle><path d="M174.14677,8.31846c0,0 -31.08,46.23 -25.85001,75.07l-18.08,-11.33c0,0 12.73,-58.38 31.7,-62.91l12.23,-0.84v0v0.01h0.00002z" fill="#2f2e41"></path><path d="M205.39677,206.06847h-72.55l-39.7,162.93001c-0.73,6.88 3.63,13.29999 10.32,15.09c21.78,5.82999 74.04,14.10001 153.14999,-8.92001c7.60999,-2.20999 11.92999,-10.23999 9.54001,-17.79999l-60.75999,-151.28999v0l-0.00002,-0.00999l0.00002,-0.00002z" fill="#2f2e41"></path><path d="M107.54678,98.47847l-0.5,-0.5l-0.5,0.5c-24.33,-24.31 -63.76,-24.28 -88.07,0.05c-24.31,24.34 -24.8,64.26001 -0.47,88.57001v0l89.1,89.01001l89.03999,-89.12v0c24.31,-24.34 23.8,-64.26 -0.52,-88.57c-24.33,-24.31 -63.75999,-24.28 -88.07,0.05v0c0,0 -0.00999,0.00998 -0.00999,0.00997z" fill="#00bbff"></path><path d="M173.34678,87.51847l20.10001,-10.31c9.19,-3.4 19.44,-2.26 27.66,3.09c25,16.26 74.27998,52.11002 53.10002,69.83002c-27.91,23.36 -65.64,-18.07001 -65.64,-18.07001l-35.22,-44.54h-0.00003z" fill="#dddedf"></path><path d="M172.90678,105.13846c-6.99001,-4.12 -10.42,-11.18 -7.64999,-15.77c2.77,-4.58 10.67999,-4.95 17.67999,-0.83c2.82001,1.61 5.19,3.89 6.91,6.65l29.39999,17.86l-9.12,14.04l-28.02,-19.1c-3.28,-0.19 -6.44,-1.17 -9.21001,-2.86h0.00999l0.00002,0.01z" id="uuid-3a4b3aa4-6bac-403c-a16e-09b93f047ea3-127" fill="#f6a6a9"></path><path d="M192.88676,121.32847l8.36,-19.97001l40.85002,13.52001l-18.27002,30.41z" fill="#dddedf"></path></g></g></svg>